<svg xmlns="http://www.w3.org/2000/svg" width="585" height="462" style="width:100%;height:100%;transform:translate3d(0,0,0);content-visibility:visible"><defs><clipPath id="a"><path d="M0 0h585v462H0z"/></clipPath></defs><g font-size="22" font-family="Shne" aria-label="M M M M M M M M M M M M M M M M M M M M M M M M M M M M M M M M M M M M M M M M M M M M M M M M M M M M M M M M M M M M M M M M M M M M M M M M M M M M M M M M M M M M M M M M M M M M M M M M M M M M M M M M M M M M M M M M M M M M M M M M M M M M M M M M M M M M M M M M M M M M M M M M M M M M M M M M M M M M M M M M M M M M M M M M M M M M M M M M M M M M M M M M M M M M M M M M M M M M M M M M M M M M M M M M M M M M M M M M M M M M M M M M M M M M M M M M M M M M M M M M M M M M M M M M M M M M M M M M M M M M M M M M M M M M M M M M M M" style="display:block" stroke-linejoin="round" clip-path="url(#a)"><g style="display:inherit"><g style="display:block"><path d="m295.9383908 44.29571533 4.87432046-13.09396034v13.09396034h1.97185943v-15.9077597h-2.8138002l-4.85209923 13.07173975-4.8298801-13.07173975h-2.90246007v15.9077597h1.99408013V31.201755l4.85210007 13.09396034h1.70587952z"/></g></g><g style="display:inherit"><g style="display:block"><path d="m342.53436668 44.29571533 4.87432045-13.09396034v13.09396034h1.97185944v-15.9077597h-2.8138002l-4.85209923 13.07173975-4.8298801-13.07173975h-2.90246007v15.9077597h1.99408013V31.201755l4.85210007 13.09396034h1.70587951z"/></g></g><g style="display:inherit"><g style="display:block"><path d="m365.83237083 44.29571533 4.87432045-13.09396034v13.09396034h1.97185944v-15.9077597h-2.8138002l-4.85209923 13.07173975-4.8298801-13.07173975h-2.90246007v15.9077597h1.99408013V31.201755l4.85210007 13.09396034h1.70587951z"/></g></g><g style="display:inherit"><g style="display:block"><path d="m482.3223687 44.29571533 4.87432045-13.09396034v13.09396034h1.97185943v-15.9077597h-2.8138002l-4.85209923 13.07173975-4.8298801-13.07173975h-2.90246007v15.9077597h1.99408013V31.201755l4.85210007 13.09396034h1.70587952z"/></g></g><g style="display:inherit"><g style="display:block"><path d="m552.2163659 44.29571533 4.87432044-13.09396034v13.09396034h1.97185944v-15.9077597h-2.8138002l-4.85209923 13.07173975-4.8298801-13.07173975h-2.90246008v15.9077597h1.99408014V31.201755l4.85210006 13.09396034h1.70587952z"/></g></g><g style="display:inherit"><g style="display:block"><path d="m156.15037163 71.69570923 4.87432045-13.09396034v13.09396034h1.97185943v-15.9077597h-2.8138002l-4.85209923 13.07173974-4.8298801-13.07173975h-2.90246007v15.9077597h1.99408013V58.6017489l4.85210007 13.09396034h1.70587952z"/></g></g><g style="display:inherit"><g style="display:block" opacity=".06343"><path d="m226.04437645 71.69570923 4.87432045-13.09396034v13.09396034h1.97185944v-15.9077597h-2.8138002l-4.85209923 13.07173974-4.8298801-13.07173975h-2.90246008v15.9077597h1.99408014V58.6017489l4.85210006 13.09396034h1.70587952z"/></g></g><g style="display:inherit"><g style="display:block"><path d="m272.64038284 71.69570923 4.87432045-13.09396034v13.09396034h1.97185944v-15.9077597h-2.8138002l-4.85209923 13.07173974-4.8298801-13.07173975h-2.90246007v15.9077597h1.99408013V58.6017489l4.85210007 13.09396034h1.70587951z"/></g></g><g style="display:inherit"><g style="display:block"><path d="m342.53438194 71.69570923 4.87432045-13.09396034v13.09396034h1.97185944v-15.9077597h-2.8138002l-4.85209923 13.07173974-4.8298801-13.07173975h-2.90246007v15.9077597h1.99408013V58.6017489l4.85210007 13.09396034h1.70587951z"/></g></g><g style="display:inherit"><g style="display:block"><path d="m365.8323861 71.69570923 4.87432044-13.09396034v13.09396034h1.97185944v-15.9077597h-2.8138002l-4.85209923 13.07173974-4.8298801-13.07173975h-2.90246007v15.9077597h1.99408013V58.6017489l4.85210007 13.09396034h1.70587951z"/></g></g><g style="display:inherit"><g style="display:block"><path d="m389.13037498 71.69570923 4.87432045-13.09396034v13.09396034h1.97185944v-15.9077597h-2.8138002l-4.85209923 13.07173974-4.8298801-13.07173975h-2.90246007v15.9077597h1.99408013V58.6017489l4.85210007 13.09396034h1.70587951z"/></g></g><g style="display:inherit"><g style="display:block"><path d="m412.42837914 71.69570923 4.87432044-13.09396034v13.09396034h1.97185944v-15.9077597h-2.8138002l-4.85209923 13.07173974-4.8298801-13.07173975h-2.90246007v15.9077597h1.99408013V58.6017489l4.85210007 13.09396034h1.70587952z"/></g></g><g style="display:inherit"><g style="display:block"><path d="m435.72639091 71.69570923 4.87432045-13.09396034v13.09396034h1.97185944v-15.9077597h-2.8138002l-4.85209923 13.07173974-4.8298801-13.07173975h-2.90246007v15.9077597h1.99408013V58.6017489l4.85210007 13.09396034h1.70587951z"/></g></g><g style="display:inherit"><g style="display:block"><path d="m459.0243798 71.69570923 4.87432046-13.09396034v13.09396034h1.97185943v-15.9077597h-2.8138002l-4.85209923 13.07173974-4.8298801-13.07173975h-2.90246007v15.9077597h1.99408013V58.6017489l4.85210007 13.09396034h1.70587952z"/></g></g><g style="display:inherit"><g style="display:block"><path d="m552.2163659 71.69570923 4.87432044-13.09396034v13.09396034h1.97185944v-15.9077597h-2.8138002l-4.85209923 13.07173974-4.8298801-13.07173975h-2.90246008v15.9077597h1.99408014V58.6017489l4.85210006 13.09396034h1.70587952z"/></g></g><g style="display:inherit"><g style="display:block"><path d="m575.5143853 71.69570923 4.87432045-13.09396034v13.09396034h1.97185944v-15.9077597h-2.8138002l-4.85209923 13.07173974-4.8298801-13.07173975h-2.90246008v15.9077597h1.99408014V58.6017489l4.85210006 13.09396034h1.70587952z"/></g></g><g style="display:inherit"><g style="display:block"><path d="m156.15037163 98.09570313 4.87432045-13.09396035v13.09396034h1.97185943v-15.9077597h-2.8138002l-4.85209923 13.07173975-4.8298801-13.07173975h-2.90246007v15.9077597h1.99408013V85.00174279l4.85210007 13.09396034h1.70587952z"/></g></g><g style="display:inherit"><g style="display:block"><path d="m202.74637993 98.09570313 4.87432045-13.09396035v13.09396034h1.97185943v-15.9077597h-2.8138002l-4.85209922 13.07173975-4.8298801-13.07173975h-2.90246008v15.9077597h1.99408013V85.00174279l4.85210007 13.09396034h1.70587952z"/></g></g><g style="display:inherit"><g style="display:block"><path d="m272.64038284 98.09570313 4.87432045-13.09396035v13.09396034h1.97185944v-15.9077597h-2.8138002l-4.85209923 13.07173975-4.8298801-13.07173975h-2.90246007v15.9077597h1.99408013V85.00174279l4.85210007 13.09396034h1.70587951z"/></g></g><g style="display:inherit"><g style="display:block"><path d="m342.53439339 98.09570313 4.87432045-13.09396035v13.09396034h1.97185943v-15.9077597h-2.8138002l-4.85209923 13.07173975-4.8298801-13.07173975h-2.90246007v15.9077597h1.99408013V85.00174279l4.85210007 13.09396034h1.70587952z"/></g></g><g style="display:inherit"><g style="display:block"><path d="m435.72637566 98.09570313 4.87432045-13.09396035v13.09396034h1.97185943v-15.9077597h-2.8138002l-4.85209923 13.07173975-4.8298801-13.07173975h-2.90246007v15.9077597h1.99408013V85.00174279l4.85210007 13.09396034h1.70587952z"/></g></g><g style="display:inherit"><g style="display:block"><path d="m459.0243798 98.09570313 4.87432046-13.09396035v13.09396034h1.97185943v-15.9077597h-2.8138002l-4.85209923 13.07173975-4.8298801-13.07173975h-2.90246007v15.9077597h1.99408013V85.00174279l4.85210007 13.09396034h1.70587952z"/></g></g><g style="display:inherit"><g style="display:block"><path d="m528.91836174 98.09570313 4.87432045-13.09396035v13.09396034h1.97185944v-15.9077597h-2.8138002l-4.85209923 13.07173975-4.8298801-13.07173975h-2.90246008v15.9077597h1.99408014V85.00174279l4.85210006 13.09396034h1.70587952z"/></g></g><g style="display:inherit"><g style="display:block"><path d="m575.5143853 98.09570313 4.87432045-13.09396035v13.09396034h1.97185944v-15.9077597h-2.8138002l-4.85209923 13.07173975-4.8298801-13.07173975h-2.90246008v15.9077597h1.99408014V85.00174279l4.85210006 13.09396034h1.70587952z"/></g></g><g style="display:inherit"><g style="display:block"><path d="m319.23638542 124.49569702 4.87432045-13.09396034v13.09396034h1.97185944v-15.9077597h-2.8138002l-4.85209923 13.07173975-4.8298801-13.07173975h-2.90246008v15.9077597h1.99408014v-13.09396034l4.85210007 13.09396034h1.70587951z"/></g></g><g style="display:inherit"><g style="display:block"><path d="m412.4283715 124.49569702 4.87432046-13.09396034v13.09396034h1.97185943v-15.9077597h-2.8138002l-4.85209923 13.07173975-4.8298801-13.07173975h-2.90246007v15.9077597h1.99408013v-13.09396034l4.85210007 13.09396034h1.70587952z"/></g></g><g style="display:inherit"><g style="display:block"><path d="m435.72637566 124.49569702 4.87432045-13.09396034v13.09396034h1.97185943v-15.9077597h-2.8138002l-4.85209923 13.07173975-4.8298801-13.07173975h-2.90246007v15.9077597h1.99408013v-13.09396034l4.85210007 13.09396034h1.70587952z"/></g></g><g style="display:inherit"><g style="display:block"><path d="m459.0243798 124.49569702 4.87432046-13.09396034v13.09396034h1.97185943v-15.9077597h-2.8138002l-4.85209923 13.07173975-4.8298801-13.07173975h-2.90246007v15.9077597h1.99408013v-13.09396034l4.85210007 13.09396034h1.70587952z"/></g></g><g style="display:inherit"><g style="display:block"><path d="m505.62037285 124.49569702 4.87432045-13.09396034v13.09396034h1.97185943v-15.9077597h-2.8138002l-4.85209922 13.07173975-4.8298801-13.07173975h-2.90246008v15.9077597h1.99408013v-13.09396034l4.85210007 13.09396034h1.70587952z"/></g></g><g style="display:inherit"><g style="display:block"><path d="m179.44839104 150.89569092 4.87432045-13.09396034v13.09396034h1.97185943v-15.9077597h-2.8138002l-4.85209923 13.07173974-4.8298801-13.07173975h-2.90246007v15.9077597h1.99408013v-13.09396033l4.85210007 13.09396034h1.70587952z"/></g></g><g style="display:inherit"><g style="display:block"><path d="m202.74637993 150.89569092 4.87432045-13.09396034v13.09396034h1.97185943v-15.9077597h-2.8138002l-4.85209922 13.07173974-4.8298801-13.07173975h-2.90246008v15.9077597h1.99408013v-13.09396033l4.85210007 13.09396034h1.70587952z"/></g></g><g style="display:inherit"><g style="display:block"><path d="m249.34237297 150.89569092 4.87432045-13.09396034v13.09396034h1.97185944v-15.9077597h-2.8138002l-4.85209923 13.07173974-4.8298801-13.07173975h-2.90246008v15.9077597h1.99408014v-13.09396033l4.85210006 13.09396034h1.70587952z"/></g></g><g style="display:inherit"><g style="display:block"><path d="m272.64037521 150.89569092 4.87432045-13.09396034v13.09396034h1.97185944v-15.9077597h-2.8138002l-4.85209923 13.07173974-4.8298801-13.07173975h-2.90246007v15.9077597h1.99408013v-13.09396033l4.85210007 13.09396034h1.70587951z"/></g></g><g style="display:inherit"><g style="display:block"><path d="m295.93838127 150.89569092 4.87432045-13.09396034v13.09396034h1.97185944v-15.9077597h-2.8138002l-4.85209923 13.07173974-4.8298801-13.07173975h-2.90246008v15.9077597h1.99408014v-13.09396033l4.85210006 13.09396034h1.70587952z"/></g></g><g style="display:inherit"><g style="display:block"><path d="m365.83237846 150.89569092 4.87432045-13.09396034v13.09396034h1.97185944v-15.9077597h-2.8138002l-4.85209923 13.07173974-4.8298801-13.07173975h-2.90246007v15.9077597h1.99408013v-13.09396033l4.85210007 13.09396034h1.70587951z"/></g></g><g style="display:inherit"><g style="display:block"><path d="m389.13038261 150.89569092 4.87432045-13.09396034v13.09396034h1.97185944v-15.9077597h-2.8138002l-4.85209923 13.07173974-4.8298801-13.07173975h-2.90246007v15.9077597h1.99408013v-13.09396033l4.85210007 13.09396034h1.70587951z"/></g></g><g style="display:inherit"><g style="display:block"><path d="m412.42838676 150.89569092 4.87432045-13.09396034v13.09396034h1.97185944v-15.9077597h-2.8138002l-4.85209923 13.07173974-4.8298801-13.07173975h-2.90246007v15.9077597h1.99408013v-13.09396033l4.85210007 13.09396034h1.70587951z"/></g></g><g style="display:inherit"><g style="display:block"><path d="m459.0243798 150.89569092 4.87432046-13.09396034v13.09396034h1.97185943v-15.9077597h-2.8138002l-4.85209923 13.07173974-4.8298801-13.07173975h-2.90246007v15.9077597h1.99408013v-13.09396033l4.85210007 13.09396034h1.70587952z"/></g></g><g style="display:inherit"><g style="display:block"><path d="m482.32238396 150.89569092 4.87432045-13.09396034v13.09396034h1.97185943v-15.9077597h-2.8138002l-4.85209923 13.07173974-4.8298801-13.07173975h-2.90246007v15.9077597h1.99408013v-13.09396033l4.85210007 13.09396034h1.70587952z"/></g></g><g style="display:inherit"><g style="display:block"><path d="m552.2163659 150.89569092 4.87432044-13.09396034v13.09396034h1.97185944v-15.9077597h-2.8138002l-4.85209923 13.07173974-4.8298801-13.07173975h-2.90246008v15.9077597h1.99408014v-13.09396033l4.85210006 13.09396034h1.70587952z"/></g></g><g style="display:inherit"><g style="display:block"><path d="m109.55437859 177.29568481 4.87432045-13.09396034v13.09396034h1.97185943v-15.9077597h-2.8138002l-4.85209923 13.07173975-4.8298801-13.07173975h-2.90246007v15.9077597h1.99408013v-13.09396034l4.85210007 13.09396034h1.70587952z"/></g></g><g style="display:inherit"><g style="display:block"><path d="m179.44836052 177.29568481 4.87432045-13.09396034v13.09396034h1.97185944v-15.9077597h-2.8138002l-4.85209923 13.07173975-4.8298801-13.07173975h-2.90246008v15.9077597h1.99408014v-13.09396034l4.85210006 13.09396034h1.70587952z"/></g></g><g style="display:inherit"><g style="display:block"><path d="m202.7463723 177.29568481 4.87432045-13.09396034v13.09396034h1.97185944v-15.9077597h-2.8138002l-4.85209923 13.07173975-4.8298801-13.07173975h-2.90246008v15.9077597h1.99408014v-13.09396034l4.85210006 13.09396034h1.70587952z"/></g></g><g style="display:inherit"><g style="display:block"><path d="m226.04437645 177.29568481 4.87432045-13.09396034v13.09396034h1.97185944v-15.9077597h-2.8138002l-4.85209923 13.07173975-4.8298801-13.07173975h-2.90246008v15.9077597h1.99408014v-13.09396034l4.85210006 13.09396034h1.70587952z"/></g></g><g style="display:inherit"><g style="display:block"><path d="m249.3423806 177.29568481 4.87432045-13.09396034v13.09396034h1.97185944v-15.9077597h-2.8138002l-4.85209923 13.07173975-4.8298801-13.07173975h-2.90246008v15.9077597h1.99408014v-13.09396034l4.85210006 13.09396034h1.70587952z"/></g></g><g style="display:inherit"><g style="display:block"><path d="m319.2363778 177.29568481 4.87432044-13.09396034v13.09396034h1.97185944v-15.9077597h-2.8138002l-4.85209923 13.07173975-4.8298801-13.07173975h-2.90246007v15.9077597h1.99408013v-13.09396034l4.85210007 13.09396034h1.70587951z"/></g></g><g style="display:inherit"><g style="display:block"><path d="m389.13037498 177.29568481 4.87432045-13.09396034v13.09396034h1.97185944v-15.9077597h-2.8138002l-4.85209923 13.07173975-4.8298801-13.07173975h-2.90246007v15.9077597h1.99408013v-13.09396034l4.85210007 13.09396034h1.70587951z"/></g></g><g style="display:inherit"><g style="display:block"><path d="m412.42837914 177.29568481 4.87432044-13.09396034v13.09396034h1.97185944v-15.9077597h-2.8138002l-4.85209923 13.07173975-4.8298801-13.07173975h-2.90246007v15.9077597h1.99408013v-13.09396034l4.85210007 13.09396034h1.70587952z"/></g></g><g style="display:inherit"><g style="display:block"><path d="m482.32238396 177.29568481 4.87432045-13.09396034v13.09396034h1.97185943v-15.9077597h-2.8138002l-4.85209923 13.07173975-4.8298801-13.07173975h-2.90246007v15.9077597h1.99408013v-13.09396034l4.85210007 13.09396034h1.70587952z"/></g></g><g style="display:inherit"><g style="display:block"><path d="m575.5143853 177.29568481 4.87432045-13.09396034v13.09396034h1.97185944v-15.9077597h-2.8138002l-4.85209923 13.07173975-4.8298801-13.07173975h-2.90246008v15.9077597h1.99408014v-13.09396034l4.85210006 13.09396034h1.70587952z"/></g></g><g style="display:inherit"><g style="display:block"><path d="m295.9383908 203.69567871 4.87432046-13.09396034v13.09396034h1.97185943v-15.9077597h-2.8138002l-4.85209923 13.07173975-4.8298801-13.07173975h-2.90246007v15.9077597h1.99408013v-13.09396034l4.85210007 13.09396034h1.70587952z"/></g></g><g style="display:inherit"><g style="display:block"><path d="m389.13037498 203.69567871 4.87432045-13.09396034v13.09396034h1.97185944v-15.9077597h-2.8138002l-4.85209923 13.07173975-4.8298801-13.07173975h-2.90246007v15.9077597h1.99408013v-13.09396034l4.85210007 13.09396034h1.70587951z"/></g></g><g style="display:inherit"><g style="display:block"><path d="m552.2163659 203.69567871 4.87432044-13.09396034v13.09396034h1.97185944v-15.9077597h-2.8138002l-4.85209923 13.07173975-4.8298801-13.07173975h-2.90246008v15.9077597h1.99408014v-13.09396034l4.85210006 13.09396034h1.70587952z"/></g></g><g style="display:inherit"><g style="display:block"><path d="m575.5143853 203.69567871 4.87432045-13.09396034v13.09396034h1.97185944v-15.9077597h-2.8138002l-4.85209923 13.07173975-4.8298801-13.07173975h-2.90246008v15.9077597h1.99408014v-13.09396034l4.85210006 13.09396034h1.70587952z"/></g></g><g style="display:inherit"><g style="display:block"><path d="m295.93838413 230.0956726 4.87432045-13.09396033v13.09396034h1.97185944v-15.9077597h-2.8138002l-4.85209923 13.07173974-4.8298801-13.07173975h-2.90246007v15.9077597h1.99408013v-13.09396033l4.85210007 13.09396034h1.70587951z"/></g></g><g style="display:inherit"><g style="display:block"><path d="m342.53437813 230.0956726 4.87432045-13.09396033v13.09396034h1.97185943v-15.9077597h-2.8138002l-4.85209923 13.07173974-4.8298801-13.07173975h-2.90246007v15.9077597h1.99408013v-13.09396033l4.85210007 13.09396034h1.70587952z"/></g></g><g style="display:inherit"><g style="display:block"><path d="m365.83237846 230.0956726 4.87432045-13.09396033v13.09396034h1.97185944v-15.9077597h-2.8138002l-4.85209923 13.07173974-4.8298801-13.07173975h-2.90246007v15.9077597h1.99408013v-13.09396033l4.85210007 13.09396034h1.70587951z"/></g></g><g style="display:inherit"><g style="display:block"><path d="m389.13038261 230.0956726 4.87432045-13.09396033v13.09396034h1.97185944v-15.9077597h-2.8138002l-4.85209923 13.07173974-4.8298801-13.07173975h-2.90246007v15.9077597h1.99408013v-13.09396033l4.85210007 13.09396034h1.70587951z"/></g></g><g style="display:inherit"><g style="display:block"><path d="m412.4283715 230.0956726 4.87432046-13.09396033v13.09396034h1.97185943v-15.9077597h-2.8138002l-4.85209923 13.07173974-4.8298801-13.07173975h-2.90246007v15.9077597h1.99408013v-13.09396033l4.85210007 13.09396034h1.70587952z"/></g></g><g style="display:inherit"><g style="display:block"><path d="m482.32238396 230.0956726 4.87432045-13.09396033v13.09396034h1.97185943v-15.9077597h-2.8138002l-4.85209923 13.07173974-4.8298801-13.07173975h-2.90246007v15.9077597h1.99408013v-13.09396033l4.85210007 13.09396034h1.70587952z"/></g></g><g style="display:inherit"><g style="display:block"><path d="m575.5143853 230.0956726 4.87432045-13.09396033v13.09396034h1.97185944v-15.9077597h-2.8138002l-4.85209923 13.07173974-4.8298801-13.07173975h-2.90246008v15.9077597h1.99408014v-13.09396033l4.85210006 13.09396034h1.70587952z"/></g></g><g style="display:inherit"><g style="display:block"><path d="m156.15037163 256.4956665 4.87432045-13.09396034v13.09396034h1.97185943v-15.9077597h-2.8138002l-4.85209923 13.07173975-4.8298801-13.07173975h-2.90246007v15.9077597h1.99408013v-13.09396034l4.85210007 13.09396034h1.70587952z"/></g></g><g style="display:inherit"><g style="display:block"><path d="m295.9383765 256.4956665 4.87432045-13.09396034v13.09396034h1.97185944v-15.9077597h-2.8138002l-4.85209923 13.07173975-4.8298801-13.07173975h-2.90246007v15.9077597h1.99408013v-13.09396034l4.85210007 13.09396034h1.70587951z"/></g></g><g style="display:inherit"><g style="display:block"><path d="m365.83237083 256.4956665 4.87432045-13.09396034v13.09396034h1.97185944v-15.9077597h-2.8138002l-4.85209923 13.07173975-4.8298801-13.07173975h-2.90246007v15.9077597h1.99408013v-13.09396034l4.85210007 13.09396034h1.70587951z"/></g></g><g style="display:inherit"><g style="display:block"><path d="m412.42837914 256.4956665 4.87432044-13.09396034v13.09396034h1.97185944v-15.9077597h-2.8138002l-4.85209923 13.07173975-4.8298801-13.07173975h-2.90246007v15.9077597h1.99408013v-13.09396034l4.85210007 13.09396034h1.70587952z"/></g></g><g style="display:inherit"><g style="display:block"><path d="m459.02439507 256.4956665 4.87432045-13.09396034v13.09396034h1.97185943v-15.9077597h-2.8138002l-4.85209923 13.07173975-4.8298801-13.07173975h-2.90246007v15.9077597h1.99408013v-13.09396034l4.85210007 13.09396034h1.70587952z"/></g></g><g style="display:inherit"><g style="display:block"><path d="m505.62037285 256.4956665 4.87432045-13.09396034v13.09396034h1.97185943v-15.9077597h-2.8138002l-4.85209922 13.07173975-4.8298801-13.07173975h-2.90246008v15.9077597h1.99408013v-13.09396034l4.85210007 13.09396034h1.70587952z"/></g></g><g style="display:inherit"><g style="display:block"><path d="m575.5143853 256.4956665 4.87432045-13.09396034v13.09396034h1.97185944v-15.9077597h-2.8138002l-4.85209923 13.07173975-4.8298801-13.07173975h-2.90246008v15.9077597h1.99408014v-13.09396034l4.85210006 13.09396034h1.70587952z"/></g></g><g style="display:inherit"><g style="display:block"><path d="m226.04438408 282.8956604 4.87432045-13.09396034v13.09396034h1.97185943v-15.9077597h-2.8138002l-4.85209922 13.07173975-4.8298801-13.07173975h-2.90246008v15.9077597h1.99408014v-13.09396034l4.85210006 13.09396034h1.70587952z"/></g></g><g style="display:inherit"><g style="display:block"><path d="m249.34237679 282.8956604 4.87432045-13.09396034v13.09396034h1.97185943v-15.9077597h-2.8138002l-4.85209923 13.07173975-4.8298801-13.07173975h-2.90246007v15.9077597h1.99408013v-13.09396034l4.85210007 13.09396034h1.70587952z"/></g></g><g style="display:inherit"><g style="display:block"><path d="m272.64037903 282.8956604 4.87432045-13.09396034v13.09396034h1.97185943v-15.9077597h-2.8138002l-4.85209923 13.07173975-4.8298801-13.07173975h-2.90246007v15.9077597h1.99408013v-13.09396034l4.85210007 13.09396034h1.70587952z"/></g></g><g style="display:inherit"><g style="display:block"><path d="m295.93838223 282.8956604 4.87432044-13.09396034v13.09396034h1.97185944v-15.9077597h-2.8138002l-4.85209923 13.07173975-4.8298801-13.07173975h-2.90246007v15.9077597h1.99408013v-13.09396034l4.85210007 13.09396034h1.70587952z"/></g></g><g style="display:inherit"><g style="display:block"><path d="m319.23638542 282.8956604 4.87432045-13.09396034v13.09396034h1.97185944v-15.9077597h-2.8138002l-4.85209923 13.07173975-4.8298801-13.07173975h-2.90246008v15.9077597h1.99408014v-13.09396034l4.85210007 13.09396034h1.70587951z"/></g></g><g style="display:inherit"><g style="display:block"><path d="m435.72639091 282.8956604 4.87432045-13.09396034v13.09396034h1.97185944v-15.9077597h-2.8138002l-4.85209923 13.07173975-4.8298801-13.07173975h-2.90246007v15.9077597h1.99408013v-13.09396034l4.85210007 13.09396034h1.70587951z"/></g></g><g style="display:inherit"><g style="display:block"><path d="m505.62037285 282.8956604 4.87432045-13.09396034v13.09396034h1.97185943v-15.9077597h-2.8138002l-4.85209922 13.07173975-4.8298801-13.07173975h-2.90246008v15.9077597h1.99408013v-13.09396034l4.85210007 13.09396034h1.70587952z"/></g></g><g style="display:inherit"><g style="display:block"><path d="m528.918377 282.8956604 4.87432045-13.09396034v13.09396034h1.97185943v-15.9077597h-2.8138002l-4.85209922 13.07173975-4.8298801-13.07173975h-2.90246008v15.9077597h1.99408014v-13.09396034l4.85210006 13.09396034h1.70587952z"/></g></g><g style="display:inherit"><g style="display:block"><path d="m552.21638115 282.8956604 4.87432045-13.09396034v13.09396034h1.97185944v-15.9077597h-2.8138002l-4.85209923 13.07173975-4.8298801-13.07173975h-2.90246008v15.9077597h1.99408014v-13.09396034l4.85210006 13.09396034h1.70587952z"/></g></g><g style="display:inherit"><g style="display:block"><path d="m575.5143853 282.8956604 4.87432045-13.09396034v13.09396034h1.97185944v-15.9077597h-2.8138002l-4.85209923 13.07173975-4.8298801-13.07173975h-2.90246008v15.9077597h1.99408014v-13.09396034l4.85210006 13.09396034h1.70587952z"/></g></g><g style="display:inherit"><g style="display:block"><path d="m319.23636635 309.2956543 4.87432045-13.09396035v13.09396035h1.97185943v-15.9077597h-2.8138002l-4.85209923 13.07173974-4.8298801-13.07173975h-2.90246007v15.9077597h1.99408013v-13.09396034l4.85210007 13.09396035h1.70587952z"/></g></g><g style="display:inherit"><g style="display:block"><path d="m365.83237083 309.2956543 4.87432045-13.09396035v13.09396035h1.97185944v-15.9077597h-2.8138002l-4.85209923 13.07173974-4.8298801-13.07173975h-2.90246007v15.9077597h1.99408013v-13.09396034l4.85210007 13.09396035h1.70587951z"/></g></g><g style="display:inherit"><g style="display:block"><path d="m389.13037498 309.2956543 4.87432045-13.09396035v13.09396035h1.97185944v-15.9077597h-2.8138002l-4.85209923 13.07173974-4.8298801-13.07173975h-2.90246007v15.9077597h1.99408013v-13.09396034l4.85210007 13.09396035h1.70587951z"/></g></g><g style="display:inherit"><g style="display:block"><path d="m505.6203881 309.2956543 4.87432046-13.09396035v13.09396035h1.97185943v-15.9077597h-2.8138002l-4.85209923 13.07173974-4.8298801-13.07173975h-2.90246007v15.9077597h1.99408013v-13.09396034l4.85210007 13.09396035h1.70587952z"/></g></g><g style="display:inherit"><g style="display:block"><path d="m552.21638115 309.2956543 4.87432045-13.09396035v13.09396035h1.97185944v-15.9077597h-2.8138002l-4.85209923 13.07173974-4.8298801-13.07173975h-2.90246008v15.9077597h1.99408014v-13.09396034l4.85210006 13.09396035h1.70587952z"/></g></g><g style="display:inherit"><g style="display:block"><path d="m342.53438957 335.6956482 4.87432045-13.09396035v13.09396034h1.97185944v-15.9077597h-2.8138002l-4.85209923 13.07173975-4.8298801-13.07173975h-2.90246008v15.9077597H335.97641v-13.09396034l4.85210007 13.09396034h1.70587951z"/></g></g><g style="display:inherit"><g style="display:block"><path d="m389.13036736 335.6956482 4.87432045-13.09396035v13.09396034h1.97185943v-15.9077597h-2.8138002l-4.85209923 13.07173975-4.8298801-13.07173975h-2.90246007v15.9077597h1.99408013v-13.09396034l4.85210007 13.09396034h1.70587952z"/></g></g><g style="display:inherit"><g style="display:block"><path d="m482.32238396 335.6956482 4.87432045-13.09396035v13.09396034h1.97185943v-15.9077597h-2.8138002l-4.85209923 13.07173975-4.8298801-13.07173975h-2.90246007v15.9077597h1.99408013v-13.09396034l4.85210007 13.09396034h1.70587952z"/></g></g><g style="display:inherit"><g style="display:block"><path d="m575.5143853 335.6956482 4.87432045-13.09396035v13.09396034h1.97185944v-15.9077597h-2.8138002l-4.85209923 13.07173975-4.8298801-13.07173975h-2.90246008v15.9077597h1.99408014v-13.09396034l4.85210006 13.09396034h1.70587952z"/></g></g><g style="display:inherit"><g style="display:block"><path d="m109.55437859 362.09564209 4.87432045-13.09396034v13.09396034h1.97185943v-15.9077597h-2.8138002l-4.85209923 13.07173975-4.8298801-13.07173975h-2.90246007v15.9077597h1.99408013v-13.09396034l4.85210007 13.09396034h1.70587952z"/></g></g><g style="display:inherit"><g style="display:block"><path d="m179.44836052 362.09564209 4.87432045-13.09396034v13.09396034h1.97185944v-15.9077597h-2.8138002l-4.85209923 13.07173975-4.8298801-13.07173975h-2.90246008v15.9077597h1.99408014v-13.09396034l4.85210006 13.09396034h1.70587952z"/></g></g><g style="display:inherit"><g style="display:block"><path d="m202.7463723 362.09564209 4.87432045-13.09396034v13.09396034h1.97185944v-15.9077597h-2.8138002l-4.85209923 13.07173975-4.8298801-13.07173975h-2.90246008v15.9077597h1.99408014v-13.09396034l4.85210006 13.09396034h1.70587952z"/></g></g><g style="display:inherit"><g style="display:block"><path d="m365.8323861 362.09564209 4.87432044-13.09396034v13.09396034h1.97185944v-15.9077597h-2.8138002l-4.85209923 13.07173975-4.8298801-13.07173975h-2.90246007v15.9077597h1.99408013v-13.09396034l4.85210007 13.09396034h1.70587951z"/></g></g><g style="display:inherit"><g style="display:block"><path d="m389.13037498 362.09564209 4.87432045-13.09396034v13.09396034h1.97185944v-15.9077597h-2.8138002l-4.85209923 13.07173975-4.8298801-13.07173975h-2.90246007v15.9077597h1.99408013v-13.09396034l4.85210007 13.09396034h1.70587951z"/></g></g><g style="display:inherit"><g style="display:block"><path d="m482.32238396 362.09564209 4.87432045-13.09396034v13.09396034h1.97185943v-15.9077597h-2.8138002l-4.85209923 13.07173975-4.8298801-13.07173975h-2.90246007v15.9077597h1.99408013v-13.09396034l4.85210007 13.09396034h1.70587952z"/></g></g><g style="display:inherit"><g style="display:block"><path d="m505.62035759 362.09564209 4.87432045-13.09396034v13.09396034h1.97185944v-15.9077597h-2.8138002l-4.85209923 13.07173975-4.8298801-13.07173975h-2.90246008v15.9077597h1.99408014v-13.09396034l4.85210006 13.09396034h1.70587952z"/></g></g><g style="display:inherit"><g style="display:block"><path d="m342.53438576 388.49563599 4.87432045-13.09396035V388.495636h1.97185943v-15.9077597h-2.8138002l-4.85209923 13.07173974-4.8298801-13.07173975h-2.90246007v15.9077597h1.99408013v-13.09396034l4.85210007 13.09396035h1.70587952z"/></g></g><g style="display:inherit"><g style="display:block"><path d="m412.42836388 388.49563599 4.87432045-13.09396035V388.495636h1.97185943v-15.9077597h-2.8138002l-4.85209923 13.07173974-4.8298801-13.07173975h-2.90246007v15.9077597h1.99408013v-13.09396034l4.85210007 13.09396035h1.70587952z"/></g></g><g style="display:inherit"><g style="display:block"><path d="m482.32238396 388.49563599 4.87432045-13.09396035V388.495636h1.97185943v-15.9077597h-2.8138002l-4.85209923 13.07173974-4.8298801-13.07173975h-2.90246007v15.9077597h1.99408013v-13.09396034l4.85210007 13.09396035h1.70587952z"/></g></g><g style="display:inherit"><g style="display:block"><path d="m505.6203881 388.49563599 4.87432046-13.09396035V388.495636h1.97185943v-15.9077597h-2.8138002l-4.85209923 13.07173974-4.8298801-13.07173975h-2.90246007v15.9077597h1.99408013v-13.09396034l4.85210007 13.09396035h1.70587952z"/></g></g><g style="display:inherit"><g style="display:block"><path d="m575.5143853 388.49563599 4.87432045-13.09396035V388.495636h1.97185944v-15.9077597h-2.8138002l-4.85209923 13.07173974-4.8298801-13.07173975h-2.90246008v15.9077597h1.99408014v-13.09396034l4.85210006 13.09396035h1.70587952z"/></g></g><g style="display:inherit"><g style="display:block"><path d="m226.04438408 414.89562988 4.87432045-13.09396034v13.09396034h1.97185943v-15.9077597h-2.8138002l-4.85209922 13.07173975-4.8298801-13.07173975h-2.90246008v15.9077597h1.99408014v-13.09396034l4.85210006 13.09396034h1.70587952z"/></g></g><g style="display:inherit"><g style="display:block"><path d="m389.13036736 414.89562988 4.87432045-13.09396034v13.09396034h1.97185943v-15.9077597h-2.8138002l-4.85209923 13.07173975-4.8298801-13.07173975h-2.90246007v15.9077597h1.99408013v-13.09396034l4.85210007 13.09396034h1.70587952z"/></g></g><g style="display:inherit"><g style="display:block"><path d="m435.72637566 414.89562988 4.87432045-13.09396034v13.09396034h1.97185943v-15.9077597h-2.8138002l-4.85209923 13.07173975-4.8298801-13.07173975h-2.90246007v15.9077597h1.99408013v-13.09396034l4.85210007 13.09396034h1.70587952z"/></g></g><g style="display:inherit"><g style="display:block"><path d="m459.0243798 414.89562988 4.87432046-13.09396034v13.09396034h1.97185943v-15.9077597h-2.8138002l-4.85209923 13.07173975-4.8298801-13.07173975h-2.90246007v15.9077597h1.99408013v-13.09396034l4.85210007 13.09396034h1.70587952z"/></g></g><g style="display:inherit"><g style="display:block"><path d="m482.3223687 414.89562988 4.87432045-13.09396034v13.09396034h1.97185943v-15.9077597h-2.8138002l-4.85209923 13.07173975-4.8298801-13.07173975h-2.90246007v15.9077597h1.99408013v-13.09396034l4.85210007 13.09396034h1.70587952z"/></g></g><g style="display:inherit"><g style="display:block"><path d="m505.62037285 414.89562988 4.87432045-13.09396034v13.09396034h1.97185943v-15.9077597h-2.8138002l-4.85209922 13.07173975-4.8298801-13.07173975h-2.90246008v15.9077597h1.99408013v-13.09396034l4.85210007 13.09396034h1.70587952z"/></g></g><g style="display:inherit"><g style="display:block"><path d="m528.918377 414.89562988 4.87432045-13.09396034v13.09396034h1.97185943v-15.9077597h-2.8138002l-4.85209922 13.07173975-4.8298801-13.07173975h-2.90246008v15.9077597h1.99408014v-13.09396034l4.85210006 13.09396034h1.70587952z"/></g></g><g style="display:inherit"><g style="display:block"><path d="m575.51441582 414.89562988 4.87432045-13.09396034v13.09396034h1.97185943v-15.9077597h-2.8138002l-4.85209923 13.07173975-4.8298801-13.07173975h-2.90246007v15.9077597h1.99408013v-13.09396034l4.85210007 13.09396034h1.70587952z"/></g></g><g style="display:inherit"><g style="display:block"><path d="m272.64037903 441.29562378 4.87432045-13.09396034v13.09396034h1.97185943v-15.9077597h-2.8138002l-4.85209923 13.07173974-4.8298801-13.07173975h-2.90246007v15.9077597h1.99408013v-13.09396033l4.85210007 13.09396034h1.70587952z"/></g></g><g style="display:inherit"><g style="display:block"><path d="m342.53437813 441.29562378 4.87432045-13.09396034v13.09396034h1.97185943v-15.9077597h-2.8138002l-4.85209923 13.07173974-4.8298801-13.07173975h-2.90246007v15.9077597h1.99408013v-13.09396033l4.85210007 13.09396034h1.70587952z"/></g></g><g style="display:inherit"><g style="display:block"><path d="m365.83237846 441.29562378 4.87432045-13.09396034v13.09396034h1.97185944v-15.9077597h-2.8138002l-4.85209923 13.07173974-4.8298801-13.07173975h-2.90246007v15.9077597h1.99408013v-13.09396033l4.85210007 13.09396034h1.70587951z"/></g></g><g style="display:inherit"><g style="display:block"><path d="m435.72637566 441.29562378 4.87432045-13.09396034v13.09396034h1.97185943v-15.9077597h-2.8138002l-4.85209923 13.07173974-4.8298801-13.07173975h-2.90246007v15.9077597h1.99408013v-13.09396033l4.85210007 13.09396034h1.70587952z"/></g></g><g style="display:inherit"><g style="display:block"><path d="m552.21638115 441.29562378 4.87432045-13.09396034v13.09396034h1.97185944v-15.9077597h-2.8138002l-4.85209923 13.07173974-4.8298801-13.07173975h-2.90246008v15.9077597h1.99408014v-13.09396033l4.85210006 13.09396034h1.70587952z"/></g></g></g></svg>