<svg xmlns="http://www.w3.org/2000/svg" viewBox="0 0 52 52" id="Realestate"><path fill="#0b00e6" d="M29.995 21.111h2v27.89h-2z" class="color0096e6 svgShape"></path><path fill="#0b00e6" d="m49.645 21.231-23-19a.984.984 0 0 0-1.27 0l-4.3 3.55-3.37-3.38c-.39-.39-1.03-.39-1.42 0l-14 14c-.19.19-.29.45-.29.71l.01 31.89c0 .55.45 1 1 1h46c.55 0 1-.45 1-1v-27c0-.3-.13-.58-.36-.77zm-1.64 26.77h-44v-26l-.01-4.48 13-13 10.46 10.47 1.42-1.42-.63-.63-5.75-5.74 3.51-2.9 22 18.17v25.53z" class="color0096e6 svgShape"></path><path fill="#ffffff" d="M48.005 22.471v25.53h-9.01v-16.78c0-.55-.44-1-1-1h-6v-8.21a5 5 0 0 0-1-9.9c-1 0-1.94.29-2.75.83l-5.75-5.74 3.51-2.9 22 18.17z" class="colorffffff svgShape"></path><path fill="#ffffff" d="M31.995 32.221h5v15.78h-5zM11.995 32.221h10v15.78h-10z" class="colorffffff svgShape"></path><path fill="#dcdbef" d="m27.455 14.991-10.46-10.47-13 13 .01 4.48v26h5.99v-16.78c0-.55.45-1 1-1h12c.56 0 1 .45 1 1v16.78h6v-30.48l-2.54-2.53zm-10.46 10.12c-2.75 0-5-2.24-5-5s2.25-5 5-5c2.76 0 5 2.24 5 5s-2.24 5-5 5z" class="colord0e8f9 svgShape"></path><path fill="#0b00e6" d="M23.995 31.221v17.78h-2v-16.78h-10v16.78h-2v-17.78c0-.55.45-1 1-1h12c.56 0 1 .45 1 1zM38.995 31.221v17.78h-2v-16.78h-6v-2h7c.56 0 1 .45 1 1zM30.995 12.111c-1 0-1.94.29-2.75.83-.28.18-.55.39-.79.63-.18.19-.29.44-.29.71 0 .26.11.52.29.71l2.54 2.53v3.59c0 .55.45 1 1 1a5 5 0 0 0 0-10zm1 7.83v-2.83c0-.27-.11-.52-.29-.71l-2.01-2a3.009 3.009 0 0 1 4.3 2.71c0 1.3-.84 2.42-2 2.83zM16.995 15.111c-2.75 0-5 2.24-5 5s2.25 5 5 5c2.76 0 5-2.24 5-5s-2.24-5-5-5zm0 8c-1.65 0-3-1.35-3-3s1.35-3 3-3c1.66 0 3 1.35 3 3s-1.34 3-3 3z" class="color0096e6 svgShape"></path></svg>